<svg width="30" height="30" viewBox="0 0 30 30" fill="none" xmlns="http://www.w3.org/2000/svg">
<g clip-path="url(#clip0_118_761)">
<path d="M26.25 0H3.75C2.75544 0 1.80161 0.395088 1.09835 1.09835C0.395088 1.80161 0 2.75544 0 3.75L0 28.7484C1.10259e-05 28.9878 0.0684007 29.2222 0.197119 29.424C0.325837 29.6258 0.509525 29.7866 0.726562 29.8875C0.891726 29.9614 1.07061 29.9998 1.25156 30C1.54893 29.9995 1.83641 29.8932 2.0625 29.7L9.40781 23.4047C10.0877 22.821 10.954 22.5001 11.85 22.5H26.25C27.2446 22.5 28.1984 22.1049 28.9016 21.4016C29.6049 20.6984 30 19.7446 30 18.75V3.75C30 2.75544 29.6049 1.80161 28.9016 1.09835C28.1984 0.395088 27.2446 0 26.25 0V0ZM27.5016 18.75C27.5003 19.0816 27.3681 19.3992 27.1336 19.6336C26.8992 19.8681 26.5816 20.0003 26.25 20.0016H11.85C10.3578 20.0024 8.91492 20.536 7.78125 21.5063L2.49844 26.0344V3.75C2.49967 3.41845 2.63193 3.10082 2.86638 2.86638C3.10082 2.63193 3.41845 2.49967 3.75 2.49844H26.25C26.5816 2.49967 26.8992 2.63193 27.1336 2.86638C27.3681 3.10082 27.5003 3.41845 27.5016 3.75V18.75Z" fill="#6B6C7A"/>
<path d="M21.2483 7.35468H8.75146C8.58097 7.34424 8.41015 7.3688 8.24952 7.42685C8.08888 7.4849 7.94183 7.57522 7.81741 7.69225C7.69299 7.80927 7.59384 7.95053 7.52607 8.10731C7.4583 8.2641 7.42334 8.4331 7.42334 8.6039C7.42334 8.77471 7.4583 8.94371 7.52607 9.10049C7.59384 9.25728 7.69299 9.39853 7.81741 9.51556C7.94183 9.63258 8.08888 9.7229 8.24952 9.78096C8.41015 9.83901 8.58097 9.86357 8.75146 9.85312H21.2483C21.4188 9.86357 21.5896 9.83901 21.7503 9.78096C21.9109 9.7229 22.058 9.63258 22.1824 9.51556C22.3068 9.39853 22.406 9.25728 22.4737 9.10049C22.5415 8.94371 22.5765 8.77471 22.5765 8.6039C22.5765 8.4331 22.5415 8.2641 22.4737 8.10731C22.406 7.95053 22.3068 7.80927 22.1824 7.69225C22.058 7.57522 21.9109 7.4849 21.7503 7.42685C21.5896 7.3688 21.4188 7.34424 21.2483 7.35468Z" fill="#6B6C7A"/>
<path d="M21.2483 12.3563H8.75146C8.58097 12.3458 8.41015 12.3704 8.24952 12.4284C8.08888 12.4865 7.94183 12.5768 7.81741 12.6938C7.69299 12.8108 7.59384 12.9521 7.52607 13.1089C7.4583 13.2657 7.42334 13.4347 7.42334 13.6055C7.42334 13.7763 7.4583 13.9453 7.52607 14.1021C7.59384 14.2588 7.69299 14.4001 7.81741 14.5171C7.94183 14.6342 8.08888 14.7245 8.24952 14.7825C8.41015 14.8406 8.58097 14.8651 8.75146 14.8547H21.2483C21.4188 14.8651 21.5896 14.8406 21.7503 14.7825C21.9109 14.7245 22.058 14.6342 22.1824 14.5171C22.3068 14.4001 22.406 14.2588 22.4737 14.1021C22.5415 13.9453 22.5765 13.7763 22.5765 13.6055C22.5765 13.4347 22.5415 13.2657 22.4737 13.1089C22.406 12.9521 22.3068 12.8108 22.1824 12.6938C22.058 12.5768 21.9109 12.4865 21.7503 12.4284C21.5896 12.3704 21.4188 12.3458 21.2483 12.3563Z" fill="#6B6C7A"/>
</g>
<defs>
<clipPath id="clip0_118_761">
<rect width="30" height="30" fill="white"/>
</clipPath>
</defs>
</svg>
