<svg width="28" height="24" viewBox="0 0 28 24" fill="#21232B" xmlns="http://www.w3.org/2000/svg">
<path d="M19.625 7.00003H4.51778L8.63394 2.88393C8.75001 2.76785 8.84209 2.63005 8.90491 2.47839C8.96773 2.32672 9.00007 2.16417 9.00007 2.00002C9.00007 1.83586 8.96773 1.67331 8.90491 1.52164C8.84209 1.36998 8.75001 1.23218 8.63394 1.1161C8.51786 1.00002 8.38005 0.907944 8.22839 0.845124C8.07673 0.782303 7.91418 0.749969 7.75002 0.749969C7.58586 0.749969 7.42331 0.782303 7.27165 0.845124C7.11999 0.907944 6.98218 1.00002 6.8661 1.1161L0.616084 7.36612C0.381682 7.60056 0.25 7.91851 0.25 8.25004C0.25 8.58156 0.381682 8.89951 0.616084 9.13395L6.8661 15.3839C7.10053 15.6183 7.41849 15.75 7.75002 15.75C8.08155 15.75 8.39951 15.6183 8.63394 15.3839C8.86837 15.1495 9.00007 14.8315 9.00007 14.5C9.00007 14.1685 8.86837 13.8505 8.63394 13.6161L4.51778 9.49999H19.625C21.1169 9.49999 22.5476 10.0926 23.6025 11.1475C24.6574 12.2024 25.25 13.6331 25.25 15.125C25.25 16.6168 24.6574 18.0476 23.6025 19.1025C22.5476 20.1574 21.1169 20.75 19.625 20.75H6.50001C6.16849 20.75 5.85054 20.8817 5.61612 21.1161C5.3817 21.3505 5.25 21.6685 5.25 22C5.25 22.3315 5.3817 22.6495 5.61612 22.8839C5.85054 23.1183 6.16849 23.25 6.50001 23.25H19.625C24.1051 23.25 27.75 19.6052 27.75 15.125C27.75 10.6448 24.1051 7.00003 19.625 7.00003Z" fill="#21232B"/>
</svg>
