<svg width="27" height="27" viewBox="0 0 27 27" fill="none" xmlns="http://www.w3.org/2000/svg">
<path d="M6.47998 14.58C3.20488 14.58 0.539978 17.2449 0.539978 20.52C0.539978 23.7951 3.20488 26.46 6.47998 26.46C8.48338 26.46 10.361 25.4329 11.4528 23.76H15.5466C16.639 25.4329 18.5166 26.46 20.5194 26.46C23.7945 26.46 26.4594 23.7951 26.4594 20.52C26.4594 17.2449 23.7945 14.58 20.5194 14.58H14.04V13.5C14.04 12.3088 13.0712 11.34 11.88 11.34H9.71998C9.12436 11.34 8.63998 10.8556 8.63998 10.26C8.63998 9.66437 9.12436 9.17999 9.71998 9.17999H17.28C18.4712 9.17999 19.44 8.21123 19.44 7.01999C19.44 5.82875 18.4712 4.85999 17.28 4.85999H15.12C14.5244 4.85999 14.04 4.37561 14.04 3.77999V0.539993H12.96V3.77999C12.96 4.97123 13.9287 5.93999 15.12 5.93999H17.28C17.8756 5.93999 18.36 6.42437 18.36 7.01999C18.36 7.61561 17.8756 8.09999 17.28 8.09999H9.71998C8.52874 8.09999 7.55998 9.06875 7.55998 10.26C7.55998 11.4512 8.52874 12.42 9.71998 12.42H11.88C12.4756 12.42 12.96 12.9044 12.96 13.5V14.58H6.47998ZM25.38 20.52C25.38 23.1995 23.1995 25.38 20.52 25.38C18.7952 25.38 17.1839 24.4485 16.3155 22.9495L16.16 22.68H10.841L10.685 22.9495C9.81664 24.4485 8.20474 25.38 6.47998 25.38C3.8005 25.38 1.61998 23.1995 1.61998 20.52C1.61998 17.8405 3.8005 15.66 6.47998 15.66H20.52C23.1995 15.66 25.38 17.8405 25.38 20.52Z" fill="#6B6C7A"/>
</svg>
